<?xml version="1.0" standalone="no"?>
<!DOCTYPE svg PUBLIC "-//W3C//DTD SVG 20010904//EN"
 "http://www.w3.org/TR/2001/REC-SVG-20010904/DTD/svg10.dtd">
<svg version="1.0" xmlns="http://www.w3.org/2000/svg"
 width="512.000000pt" height="512.000000pt" viewBox="0 0 512.000000 512.000000"
 preserveAspectRatio="xMidYMid meet">

<g transform="translate(0.000000,512.000000) scale(0.100000,-0.100000)"
fill="#000000" stroke="none">
<path d="M1340 5109 c-282 -37 -494 -207 -575 -461 -38 -119 -45 -244 -45
-763 l0 -483 -59 -22 c-183 -68 -335 -239 -382 -430 -11 -44 -14 -228 -14
-940 0 -980 -3 -932 67 -1080 88 -183 249 -289 501 -325 l37 -6 0 -217 c0
-235 7 -270 61 -322 53 -50 93 -60 254 -60 172 0 210 11 262 75 45 55 53 101
53 324 l0 201 1060 0 1060 0 0 -201 c0 -223 8 -269 53 -324 52 -64 90 -75 262
-75 161 0 201 10 254 60 54 52 61 87 61 322 l0 217 48 6 c291 40 477 200 539
462 17 72 18 142 18 953 0 812 -1 879 -18 933 -67 216 -214 373 -409 436 l-37
12 -3 567 -4 567 -27 90 c-41 130 -81 199 -168 286 -62 63 -93 85 -170 122
-183 88 -70 81 -1419 83 -657 1 -1224 -2 -1260 -7z m2486 -215 c189 -56 299
-172 339 -361 12 -54 15 -173 15 -588 l0 -520 -67 -13 c-173 -32 -342 -161
-422 -322 -51 -104 -71 -194 -71 -322 l0 -98 -1064 0 -1063 0 -5 138 c-4 113
-10 149 -30 203 -78 211 -248 359 -463 403 l-60 13 0 529 c0 577 1 584 58 703
67 137 202 227 379 250 35 5 585 8 1223 7 1141 -1 1161 -2 1231 -22z m-2829
-1692 c145 -46 256 -167 283 -312 6 -32 10 -296 10 -662 0 -676 -2 -656 65
-684 51 -21 2359 -21 2410 0 67 28 65 8 65 684 0 366 4 630 10 662 27 145 138
266 283 312 215 67 446 -61 511 -281 14 -48 16 -151 16 -850 0 -792 -5 -925
-35 -1012 -39 -112 -121 -190 -245 -232 l-65 -22 -1675 -3 c-1121 -2 -1707 1
-1773 8 -166 17 -278 84 -337 199 -49 97 -50 107 -50 1012 0 745 2 852 16 900
65 220 296 348 511 281z m2623 -1102 l0 -360 -1065 0 -1065 0 0 360 0 360
1065 0 1065 0 0 -360z m-2330 -1695 l0 -195 -105 0 -105 0 0 195 0 195 105 0
105 0 0 -195z m2750 0 l0 -195 -110 0 -110 0 0 195 0 195 110 0 110 0 0 -195z"/>
</g>
</svg>
